<?xml version="1.0" encoding="UTF-8"?><svg id="Calque_2" xmlns="http://www.w3.org/2000/svg" viewBox="0 0 380.41 711"><defs><style>.cls-1{fill:#333;}.cls-2{fill:#fff;stroke:#000;stroke-miterlimit:10;stroke-width:.5px;}</style></defs><g id="bracelet"><path class="cls-2" d="M91.24,27.79S143.41,7.5,189.79,8.95c46.38,1.45,95.65,15.94,95.65,15.94,0,0-28.99,271.01-26.09,349.28s27.54,307.25,27.54,307.25c0,0-47.83,21.74-92.75,18.84-44.93-2.9-97.1-17.39-97.1-17.39,0,0,23.88-239.13,23.88-333.33S91.24,27.79,91.24,27.79Z"/><path class="cls-2" d="M50.66,153.87S89.79,81.41,85.44,27.79c0,0,17.39-27.54,102.9-27.54s110.14,18.84,110.14,18.84c0,0,14.8,110.14,35.09,130.43,0,0-95.96,18.84-148.13,18.84s-134.78-14.49-134.78-14.49Z"/><path class="cls-2" d="M335.97,562.21s-41.86,70.92-39.56,124.67c0,0-18.43,26.85-103.87,23.59-85.45-3.26-109.35-23.02-109.35-23.02,0,0-10.59-110.63-30.09-131.68,0,0,96.6-15.17,148.74-13.18,52.14,1.99,134.13,19.62,134.13,19.62Z"/></g><g id="boitier"><rect class="cls-2" x=".25" y="130.63" width="379.91" height="453.62" rx="80.8" ry="80.8"/><rect class="cls-2" x="19.52" y="156.05" width="341.37" height="402.78" rx="72.17" ry="72.17"/><rect class="cls-2" x="38.43" y="172.53" width="303.55" height="369.83" rx="65.21" ry="65.21"/></g><g id="ecran"><g><path class="cls-1" d="M93.97,346.85v-65.66c-.07,.07-.8,.26-2.21,.59-1.41,.33-2.99,.65-4.75,.98-1.76,.33-3.33,.62-4.7,.88-1.37,.26-2.09,.39-2.16,.39v-7.94c1.11-.26,2.4-.62,3.87-1.08,1.47-.46,2.97-1.01,4.51-1.67,1.53-.65,3-1.47,4.41-2.45,1.4-.98,2.6-2.12,3.58-3.43h7.94v79.38h-10.49Z"/><path class="cls-1" d="M148.75,347.74c-4.51,0-8.22-1.01-11.12-3.04-2.91-2.02-5.06-4.8-6.47-8.33-1.41-3.53-2.11-7.55-2.11-12.05v-34.2c0-4.64,.69-8.71,2.06-12.2,1.37-3.49,3.51-6.22,6.42-8.18,2.91-1.96,6.65-2.94,11.22-2.94s8.3,.98,11.17,2.94c2.87,1.96,5,4.69,6.37,8.18,1.37,3.5,2.06,7.56,2.06,12.2v34.2c0,4.57-.7,8.62-2.11,12.15-1.41,3.53-3.54,6.29-6.42,8.28-2.88,1.99-6.57,2.99-11.07,2.99Zm0-8.62c2.48,0,4.36-.72,5.63-2.16,1.27-1.44,2.16-3.28,2.65-5.54s.74-4.59,.74-7.01v-34.4c0-2.55-.23-4.95-.69-7.2-.46-2.25-1.32-4.07-2.6-5.44-1.27-1.37-3.19-2.06-5.73-2.06s-4.48,.69-5.78,2.06c-1.31,1.37-2.19,3.19-2.65,5.44-.46,2.25-.69,4.65-.69,7.2v34.4c0,2.42,.25,4.75,.74,7.01s1.4,4.1,2.74,5.54c1.34,1.44,3.22,2.16,5.63,2.16Z"/><path class="cls-1" d="M187.27,306.18v-11.17h10.58v11.17h-10.58Zm0,31.26v-11.17h10.58v11.17h-10.58Z"/><path class="cls-1" d="M224.8,346.85v-65.66c-.07,.07-.8,.26-2.21,.59-1.41,.33-2.99,.65-4.75,.98-1.76,.33-3.33,.62-4.7,.88-1.37,.26-2.09,.39-2.16,.39v-7.94c1.11-.26,2.4-.62,3.87-1.08,1.47-.46,2.97-1.01,4.51-1.67,1.53-.65,3-1.47,4.41-2.45,1.4-.98,2.6-2.12,3.58-3.43h7.94v79.38h-10.49Z"/><path class="cls-1" d="M280.66,347.74c-5.36,0-9.64-1.04-12.84-3.14-3.2-2.09-5.49-5.08-6.86-8.97-1.37-3.89-2.06-8.44-2.06-13.67v-30.09c0-5.23,.7-9.72,2.11-13.48,1.4-3.76,3.69-6.63,6.86-8.62,3.17-1.99,7.43-2.99,12.79-2.99s9.6,1.01,12.74,3.04c3.14,2.03,5.41,4.9,6.81,8.62,1.4,3.72,2.11,8.2,2.11,13.43v30.18c0,5.16-.7,9.67-2.11,13.52-1.41,3.86-3.67,6.84-6.81,8.97-3.14,2.12-7.38,3.19-12.74,3.19Zm0-8.72c2.94,0,5.16-.6,6.66-1.81,1.5-1.21,2.51-2.91,3.04-5.1,.52-2.19,.78-4.75,.78-7.69v-34.79c0-2.94-.26-5.47-.78-7.6-.52-2.12-1.54-3.76-3.04-4.9-1.5-1.14-3.72-1.71-6.66-1.71s-5.18,.57-6.71,1.71c-1.54,1.14-2.56,2.78-3.09,4.9-.52,2.12-.78,4.66-.78,7.6v34.79c0,2.94,.26,5.5,.78,7.69,.52,2.19,1.55,3.89,3.09,5.1,1.53,1.21,3.77,1.81,6.71,1.81Z"/></g><g><path class="cls-1" d="M112.99,496.75v-21.47h2.84v18.94h10.58v2.53h-13.42Z"/><path class="cls-1" d="M139.29,496.75v-2.29c-1.21,1.76-2.86,2.64-4.94,2.64-.92,0-1.78-.18-2.57-.53-.8-.35-1.39-.79-1.77-1.33-.38-.53-.66-1.18-.81-1.96-.11-.52-.16-1.34-.16-2.46v-9.64h2.64v8.63c0,1.38,.05,2.3,.16,2.78,.17,.69,.52,1.24,1.05,1.63s1.2,.59,1.99,.59,1.53-.2,2.23-.61,1.18-.96,1.47-1.66c.29-.7,.43-1.71,.43-3.04v-8.33h2.64v15.56h-2.36Z"/><path class="cls-1" d="M145.42,496.75v-15.56h2.37v2.21c1.14-1.71,2.79-2.56,4.95-2.56,.94,0,1.8,.17,2.59,.51,.79,.34,1.38,.78,1.77,1.33s.66,1.2,.82,1.95c.1,.49,.15,1.34,.15,2.56v9.57h-2.64v-9.46c0-1.07-.1-1.88-.31-2.41s-.57-.96-1.09-1.27c-.52-.32-1.14-.48-1.84-.48-1.12,0-2.09,.36-2.91,1.07-.82,.71-1.22,2.07-1.22,4.06v8.5h-2.64Z"/><path class="cls-1" d="M171.84,496.75v-1.96c-.99,1.54-2.44,2.31-4.35,2.31-1.24,0-2.38-.34-3.42-1.03-1.04-.68-1.85-1.64-2.42-2.86-.57-1.23-.86-2.63-.86-4.23s.26-2.96,.78-4.23,1.29-2.23,2.33-2.91,2.19-1.01,3.47-1.01c.94,0,1.77,.2,2.51,.59s1.33,.91,1.79,1.54v-7.71h2.62v21.47h-2.45Zm-8.34-7.76c0,1.99,.42,3.48,1.26,4.47s1.83,1.48,2.97,1.48,2.13-.47,2.94-1.41c.8-.94,1.21-2.38,1.21-4.31,0-2.13-.41-3.69-1.23-4.69s-1.83-1.49-3.03-1.49-2.15,.48-2.94,1.44c-.79,.96-1.18,2.47-1.18,4.53Z"/><path class="cls-1" d="M178.08,478.31v-3.03h2.64v3.03h-2.64Zm0,18.44v-15.56h2.64v15.56h-2.64Z"/><path class="cls-1" d="M205.47,494.22v2.53h-14.2c-.02-.63,.08-1.25,.31-1.83,.36-.97,.94-1.92,1.73-2.86,.8-.94,1.95-2.02,3.45-3.25,2.33-1.91,3.91-3.43,4.73-4.55s1.23-2.18,1.23-3.17c0-1.04-.37-1.93-1.12-2.64-.75-.72-1.72-1.08-2.92-1.08-1.27,0-2.29,.38-3.05,1.14s-1.15,1.82-1.16,3.16l-2.71-.28c.19-2.02,.88-3.56,2.1-4.62s2.84-1.59,4.88-1.59,3.69,.57,4.89,1.71,1.8,2.56,1.8,4.25c0,.86-.18,1.7-.53,2.53s-.94,1.7-1.75,2.62c-.81,.92-2.17,2.18-4.06,3.78-1.58,1.33-2.6,2.23-3.05,2.7s-.82,.95-1.11,1.43h10.53Z"/><path class="cls-1" d="M216.39,496.75v-5.14h-9.32v-2.42l9.8-13.92h2.15v13.92h2.9v2.42h-2.9v5.14h-2.64Zm0-7.56v-9.68l-6.72,9.68h6.72Z"/><path class="cls-1" d="M231.99,488.97c0-2.88,.8-5.01,2.4-6.4,1.34-1.15,2.97-1.73,4.89-1.73,2.14,0,3.89,.7,5.24,2.1s2.04,3.34,2.04,5.81c0,2-.3,3.58-.9,4.72-.6,1.15-1.47,2.04-2.62,2.67-1.15,.63-2.4,.95-3.76,.95-2.18,0-3.94-.7-5.28-2.09-1.34-1.4-2.01-3.41-2.01-6.04Zm2.71,0c0,1.99,.44,3.48,1.3,4.48s1.96,1.49,3.28,1.49,2.4-.5,3.27-1.49,1.3-2.51,1.3-4.56c0-1.92-.44-3.38-1.31-4.37-.88-.99-1.96-1.49-3.26-1.49s-2.41,.49-3.28,1.48-1.3,2.48-1.3,4.47Z"/><path class="cls-1" d="M259.45,491.05l2.59,.34c-.28,1.79-1.01,3.19-2.18,4.2-1.17,1.01-2.6,1.52-4.3,1.52-2.13,0-3.84-.7-5.13-2.09-1.29-1.39-1.94-3.39-1.94-5.98,0-1.68,.28-3.15,.84-4.41s1.4-2.2,2.54-2.83c1.14-.63,2.38-.95,3.71-.95,1.69,0,3.07,.43,4.15,1.28s1.76,2.07,2.06,3.64l-2.56,.4c-.24-1.04-.68-1.83-1.3-2.36-.62-.53-1.37-.79-2.25-.79-1.33,0-2.41,.48-3.24,1.43s-1.24,2.46-1.24,4.52,.4,3.61,1.2,4.56,1.85,1.42,3.13,1.42c1.04,0,1.9-.32,2.59-.95s1.13-1.61,1.32-2.93Z"/><path class="cls-1" d="M269.69,494.39l.38,2.33c-.74,.16-1.41,.23-1.99,.23-.96,0-1.7-.15-2.23-.45s-.9-.7-1.11-1.19-.32-1.53-.32-3.11v-8.95h-1.93v-2.05h1.93v-3.85l2.62-1.58v5.43h2.65v2.05h-2.65v9.1c0,.75,.05,1.24,.14,1.45,.09,.21,.24,.39,.45,.51,.21,.13,.51,.19,.9,.19,.29,0,.68-.03,1.16-.1Z"/><path class="cls-1" d="M272.66,496.75v-3h3v3h-3Z"/></g></g></svg>